# AST/ASF file generated using VICON BodyLanguage
# -----------------------------------------------
:version 1.10
:name VICON
:units
  mass 1.0
  length 0.45
  angle deg
:documentation
   .ast/.asf automatically generated from VICON data using
   VICON BodyBuilder and BodyLanguage model FoxedUp or BRILLIANT.MOD
:root
   order TX TY TZ RX RY RZ
   axis XYZ
   position 0 0 0  
   orientation 0 -0 0 
:bonedata
  begin
     id 1 
     name lhipjoint
     direction 0.515797 -0.759363 0.396637 
     length 2.47888 
     axis 0 -0 0  XYZ
  end
  begin
     id 2 
     name lfemur
     direction 0.34202 -0.939693 0  
     length 6.81885  
     axis 0 -0 20  XYZ
    dof rx ry rz
    limits (-160.0 20.0)
           (-70.0 70.0)
           (-60.0 70.0)
  end
  begin
     id 3 
     name ltibia
     direction 0.342037 -0.939687 0   
     length 7.89258   
     axis 0 -0 20   XYZ
    dof rx
    limits (-10.0 170.0)
  end
  begin
     id 4 
     name lfoot
     direction 0.173497 -0.476678 0.861787   
     length 2.51543   
     axis -90 -1.13533e-015 20   XYZ
    dof rx rz
    limits (-45.0 90.0)
           (-70.0 20.0)
  end
  begin
     id 5 
     name ltoes
     direction 1.53564e-011 -4.21897e-011 1   
     length 1.21388   
     axis -90 -1.13533e-015 20   XYZ
    dof rx
    limits (-90.0 20.0)
  end
  begin
     id 6 
     name rhipjoint
     direction -0.489454 -0.772941 0.403729   
     length 2.43534  
     axis 0 -0 0  XYZ 
  end
  begin
     id 7 
     name rfemur
     direction -0.34202 -0.939693 0   
     length 7.10357   
     axis 0 -0 -20   XYZ
    dof rx ry rz
    limits (-160.0 20.0)
           (-70.0 70.0)
           (-70.0 60.0)
  end
  begin
     id 8 
     name rtibia
     direction -0.34202 -0.939693 0   
     length 9.16127   
     axis 0 -0 -20   XYZ
    dof rx
    limits (-10.0 170.0)
 end
 begin
     id 9 
     name rfoot
     direction -0.270974 -0.748671 0.605033   
     length 1.74894  
     axis -90 1.13533e-015 -20   XYZ
    dof rx rz
    limits (-45.0 90.0)
           (-20.0 70.0)
  end
  begin
     id 10 
     name rtoes
     direction -1.53557e-011 -4.21759e-011 1   
     length 0.787585   
     axis -90 1.13533e-015 -20   XYZ
    dof rx
    limits (-90.0 20.0)
  end
  begin
     id 11 
     name lowerback
     direction -0.0140249 0.999561 0.0260968   
     length 2.16963   
     axis 0 -0 0   XYZ
    dof rx ry rz
    limits (-20.0 45.0)
           (-30.0 30.0)
           (-30.0 30.0)
  end
  begin
     id 12 
     name upperback
     direction 0.00860018 0.999959 -0.002711   
     length 2.1726   
     axis 0 -0 0   XYZ
    dof rx ry rz
    limits (-20.0 45.0)
           (-30.0 30.0)
           (-30.0 30.0)
  end
  begin
     id 13 
     name thorax
     direction 0.015211 0.999782 -0.0143191   
     length 2.17061   
     axis 0 -0 0   XYZ
    dof rx ry rz
    limits (-20.0 45.0)
           (-30.0 30.0)
           (-30.0 30.0)
  end
  begin
     id 14 
     name lowerneck
     direction -0.0140143 0.999447 0.030145   
     length 2.26749   
     axis 0 -0 0   XYZ
    dof rx ry rz
    limits (-20.0 45.0)
           (-30.0 30.0)
           (-30.0 30.0)
  end
  begin
     id 15 
     name upperneck
     direction 0.118062 0.961438 -0.248392   
     length 2.22728   
     axis 0 -0 0   XYZ
    dof rx ry rz
    limits (-20.0 45.0)
           (-30.0 30.0)
           (-30.0 30.0)
  end
  begin
     id 16
     name head
     direction 0.0431885 0.9954 -0.085514  
     length 2.28786  
     axis 0 -0 0   XYZ
    dof rx ry rz
    limits (-20.0 45.0)
           (-30.0 30.0)
           (-30.0 30.0)
  end
  begin
     id 17 
     name lclavicle
     direction 0.912126 0.409548 0.0172323  
     length 4.31571  
     axis 0 -0 0   XYZ
    dof ry rz
    limits (-20.0 10.0)
           (0.0 20.0)
  end
  begin
     id 18 
     name lhumerus
     direction 1 -4.48977e-011 1.93091e-027   
     length 5.13658   
     axis 180 -30 -90   XYZ
    dof rx ry rz
    limits (-60.0 90.0)
           (-90.0 90.0)
           (-90.0 90.0)
  end
  begin
     id 19
     name lradius
     direction 1 -4.48916e-011 6.84018e-027   
     length 3.22473   
     axis 180 -30 -90   XYZ
    dof rx
    limits (-10.0 170.0)
  end
  begin
     id 20
     name lwrist
     direction 1 -4.48987e-011 7.01981e-027   
     length 1.61236   
     axis -4.37994e-015 90 90   XYZ
    dof ry
    limits (-180.0 0.0)
 end
  begin
     id 21 
     name lhand
     direction 1 -4.49037e-011 1.40335e-026   
     length 0.936406   
     axis -8.96029e-015 90 90   XYZ
    dof rx rz
    limits (-90.0 90.0)
           (-45.0 45.0)
  end
  begin
     id 22 
     name lfingers
     direction 1 -4.48886e-011 2.8104e-026   
     length 0.754955   
     axis -1.79203e-014 90 90   XYZ
    dof rx
    limits (0.0 90.0)
  end
  begin
     id 23
     name lthumb
     direction 0.707107 -6.34937e-011 0.707107   
     length 1.08397   
     axis -90 45 -4.48555e-014   XYZ
    dof rx rz
    limits (-45.0 45.0)
           (-45.0 45.0)
  end
  begin
     id 24 
     name rclavicle
     direction -0.947962 0.317997 0.0156638   
     length 4.86918  
     axis 0 -0 0   XYZ 
    dof ry rz
    limits (-10.0 20.0)
           (-20.0 0.0)
  end
  begin
     id 25 
     name rhumerus
     direction -1 -4.48951e-011 2.80534e-018  
     length 5.60911   
     axis 180 30 90   XYZ
    dof rx ry rz
    limits (-90.0 60.0)
           (-90.0 90.0)
           (-90.0 90.0)
  end
  begin
     id 26 
     name rradius
     direction -1 -4.4898e-011 2.11315e-027   
     length 3.38704   
     axis 180 30 90   XYZ
    dof rx
    limits (-10.0 170.0)
  end
  begin
     id 27 
     name rwrist
     direction -1 -4.48933e-011 7.02314e-027   
     length 1.69352   
     axis -4.37994e-015 -90 -90   XYZ
    dof ry
    limits (-180.0 0.0)
  end
  begin
     id 28
     name rhand
     direction -1 -4.48937e-011 1.40458e-026   
     length 0.755878   
     axis -8.96029e-015 -90 -90   XYZ
    dof rx rz
    limits (-90.0 90.0)
           (-45.0 45.0)
  end
  begin
     id 29
     name rfingers
     direction -1 -4.4901e-011 2.80737e-026   
     length 0.609409   
     axis -1.79203e-014 -90 -90   XYZ
    dof rx
    limits (0.0 90.0)
  end
  begin
     id 30
     name rthumb
     direction -0.707107 -6.34968e-011 0.707107   
     length 0.874992   
     axis -90 -45 4.48555e-014   XYZ
    dof rx rz
    limits (-45.0 45.0)
           (-45.0 45.0)
  end
:hierarchy
  begin
    root lhipjoint rhipjoint lowerback
    lhipjoint lfemur
    lfemur ltibia
    ltibia lfoot
    lfoot ltoes
    rhipjoint rfemur
    rfemur rtibia
    rtibia rfoot
    rfoot rtoes
    lowerback upperback
    upperback thorax
    thorax lowerneck lclavicle rclavicle
    lowerneck upperneck
    upperneck head
    lclavicle lhumerus
    lhumerus lradius
    lradius lwrist
    lwrist lhand lthumb
    lhand lfingers
    rclavicle rhumerus
    rhumerus rradius
    rradius rwrist
    rwrist rhand rthumb
    rhand rfingers
  end

#!OML:ASF C:\ViconDB\ViconDB\414\Spring2016\041811\Spring2016.ASF
:FULLY-SPECIFIED
:DEGREES
157
root 12.7447 18.0738 11.5898 -177.861 -3.87569 -178.398
lowerback -4.57529 1.10768 -1.82662
upperback 0.419279 1.57332 0.0417529
thorax 2.94611 0.752293 1.1774
lowerneck -13.8639 2.31826 -4.33182
upperneck 25.1071 0.0288775 11.2809
head 10.2508 0.39404 4.69196
rclavicle -7.05686e-015 1.23246e-014
rhumerus -44.9563 -18.8606 -81.5741
rradius 40.4332
rwrist 38.3222
rhand -32.7877 -12.9228
rfingers 7.12502
rthumb -6.00921 -42.8176
lclavicle -7.05686e-015 1.23246e-014
lhumerus -43.8641 -4.34337 87.6957
lradius 33.569
lwrist -31.8138
lhand -26.7911 13.0822
lfingers 7.12502
lthumb -0.218285 43.0618
rfemur 165.841 57.2193 -170.454
rtibia 29.8416
rfoot -68.09 -43.5589
rtoes 5.00937e-014
lfemur -7.29359 -6.52566 -13.8853
ltibia 27.0589
lfoot -23.5968 1.74754
ltoes 3.8266e-014
158
root 12.733 18.0744 11.5831 -177.75 -3.82449 -178.438
lowerback -4.62521 1.12336 -1.9429
upperback 0.433356 1.60213 0.0301488
thorax 2.98497 0.764225 1.23398
lowerneck -13.8594 2.28126 -4.33882
upperneck 24.9443 0.0107416 11.2821
head 10.193 0.391184 4.6853
rclavicle -2.67117e-016 7.15625e-015
rhumerus -44.8953 -17.7307 -82.1737
rradius 41.0718
rwrist 37.4773
rhand -32.418 -12.7268
rfingers 7.12502
rthumb -5.65231 -42.6314
lclavicle -2.67117e-016 7.15625e-015
lhumerus -44.3961 -5.30969 87.8921
lradius 34.5286
lwrist -32.1591
lhand -26.9339 12.8039
lfingers 7.12502
lthumb -0.356293 42.7834
rfemur 166.063 57.5529 -170.345
rtibia 29.8519
rfoot -68.5277 -43.4801
rtoes -5.56597e-015
lfemur -7.40394 -6.42871 -13.976
ltibia 27.1174
lfoot -23.6454 1.74979
ltoes -1.72943e-014
159
root 12.7165 18.0731 11.5871 -177.756 -3.92703 -178.482
lowerback -4.35606 1.07886 -2.00285
upperback 0.42841 1.54034 0.0294384
thorax 2.82921 0.734576 1.25625
lowerneck -13.9289 2.26129 -4.40642
upperneck 24.914 0.0166731 11.2765
head 10.1945 0.392742 4.69674
rclavicle -9.16894e-015 5.96354e-015
rhumerus -44.8566 -16.5517 -82.686
rradius 41.6491
rwrist 36.9845
rhand -32.6198 -12.8941
rfingers 7.12502
rthumb -5.84713 -42.7935
lclavicle -9.16894e-015 5.96354e-015
lhumerus -45.0898 -6.54004 88.1182
lradius 35.6301
lwrist -32.8033
lhand -27.0044 12.6341
lfingers 7.12502
lthumb -0.424292 42.6134
rfemur 166.023 57.8888 -170.472
rtibia 29.8392
rfoot -68.9795 -43.4405
rtoes 1.35174e-014
lfemur -7.47812 -6.39264 -14.0496
ltibia 27.193
lfoot -23.6397 1.58864
ltoes 1.09332e-015
160
root 12.6889 18.0693 11.5713 -177.639 -3.79413 -178.592
lowerback -4.50452 1.13504 -2.00974
upperback 0.45177 1.62124 -0.061685
thorax 2.9363 0.773662 1.1756
lowerneck -13.8349 2.21334 -4.24642
upperneck 24.7168 -0.017837 11.1229
head 10.111 0.378239 4.59907
rclavicle -1.06474e-014 2.74323e-014
rhumerus -44.9685 -15.4368 -83.1921
rradius 42.3897
rwrist 36.7462
rhand -32.5048 -12.7841
rfingers 7.12502
rthumb -5.73612 -42.6864
lclavicle -1.06474e-014 2.74323e-014
lhumerus -45.844 -7.7752 88.3998
lradius 36.9777
lwrist -32.6219
lhand -26.9315 12.4163
lfingers 7.12502
lthumb -0.353892 42.3958
rfemur 166.248 58.7512 -170.484
rtibia 29.8421
rfoot -69.9865 -43.4973
rtoes -2.3059e-014
lfemur -7.49285 -6.79952 -14.3512
ltibia 27.2433
lfoot -23.8893 2.074
ltoes 3.67752e-015
161
root 12.6734 18.069 11.5657 -177.545 -3.75363 -178.501
lowerback -4.49424 1.17178 -1.97006
upperback 0.45668 1.6675 -0.036538
thorax 2.93436 0.797295 1.18219
lowerneck -13.9706 2.18818 -4.37391
upperneck 24.7429 -0.0613406 11.2806
head 10.1494 0.368077 4.67803
rclavicle 2.58793e-014 -7.55382e-015
rhumerus -45.0472 -13.8152 -83.8794
rradius 43.322
rwrist 35.7204
rhand -32.7371 -12.7182
rfingers 7.12502
rthumb -5.9604 -42.6143
lclavicle 2.58793e-014 -7.55382e-015
lhumerus -46.5698 -9.25917 88.8554
lradius 38.3356
lwrist -31.7384
lhand -27.0173 12.1602
lfingers 7.12502
lthumb -0.436842 42.1395
rfemur 166.485 59.0006 -170.223
rtibia 29.8145
rfoot -70.2216 -43.6558
rtoes 1.51076e-014
lfemur -7.64147 -6.5223 -14.2566
ltibia 27.3232
lfoot -23.8883 1.81877
ltoes 3.27995e-015
162
root 12.6545 18.0689 11.5644 -177.487 -3.77948 -178.683
lowerback -4.30992 1.18851 -2.23018
upperback 0.422459 1.69883 -0.062051
thorax 2.78782 0.810783 1.2985
lowerneck -13.9688 2.12492 -4.43444
upperneck 24.7136 -0.12028 11.2541
head 10.1437 0.3343 4.67106
rclavicle -1.0138e-014 1.15295e-014
rhumerus -45.3372 -12.1208 -84.4729
rradius 44.3763
rwrist 35.1116
rhand -32.7551 -12.5858
rfingers 7.12502
rthumb -5.97774 -42.4815
lclavicle -1.0138e-014 1.15295e-014
lhumerus -47.4806 -10.5076 89.2493
lradius 39.7734
lwrist -31.9618
lhand -27.0586 12.0249
lfingers 7.12502
lthumb -0.47664 42.0041
rfemur 166.565 58.9746 -170.423
rtibia 29.8034
rfoot -69.9976 -43.7369
rtoes 6.44062e-014
lfemur -7.73211 -6.52996 -14.5056
ltibia 27.3638
lfoot -23.9012 1.78334
ltoes -1.10325e-014
163
root 12.6225 18.0679 11.545 -177.264 -3.61917 -178.622
lowerback -4.58798 1.25006 -2.13738
upperback 0.421935 1.78198 -0.0313038
thorax 2.94217 0.851385 1.29088
lowerneck -14.0508 2.08049 -4.4429
upperneck 24.7094 -0.138999 11.1502
head 10.1605 0.32022 4.63491
rclavicle -1.58779e-014 4.77083e-015
rhumerus -45.6141 -10.1259 -85.1512
rradius 45.4729
rwrist 34.2935
rhand -32.7169 -12.7112
rfingers 7.12502
rthumb -5.94093 -42.6079
lclavicle -1.58779e-014 4.77083e-015
lhumerus -48.4771 -12.0272 89.7705
lradius 41.3655
lwrist -31.7553
lhand -27.0949 11.7194
lfingers 7.12502
lthumb -0.511713 41.6985
rfemur 167.071 59.8317 -170.028
rtibia 29.7674
rfoot -71.1406 -43.6172
rtoes 1.49486e-013
lfemur -7.89951 -6.31844 -14.5407
ltibia 27.4192
lfoot -24.0077 1.74088
ltoes -5.93372e-014
164
root 12.6013 18.0691 11.5356 -177.208 -3.66849 -178.685
lowerback -4.51779 1.28078 -2.21904
upperback 0.41642 1.82655 -0.0811347
thorax 2.89452 0.873103 1.28636
lowerneck -14.0135 2.00587 -4.5122
upperneck 24.6383 -0.255553 11.2691
head 10.1381 0.271262 4.67254
rclavicle -1.35049e-014 -1.15295e-014
rhumerus -46.0249 -8.24102 -85.8541
rradius 46.6328
rwrist 33.8984
rhand -32.773 -12.6123
rfingers 7.12502
rthumb -5.99504 -42.5075
lclavicle -1.35049e-014 -1.15295e-014
lhumerus -49.5082 -13.5178 90.157
lradius 42.9598
lwrist -31.6567
lhand -27.191 11.5817
lfingers 7.12502
lthumb -0.604531 41.5606
rfemur 167.088 60.0322 -170.188
rtibia 29.7388
rfoot -71.2769 -43.4618
rtoes 9.06458e-014
lfemur -7.93779 -6.32465 -14.6769
ltibia 27.4465
lfoot -24.0496 1.66702
ltoes -2.96189e-014
165
root 12.5743 18.0679 11.5213 -177.089 -3.65711 -178.735
lowerback -4.56753 1.30818 -2.24861
upperback 0.405463 1.86623 -0.113728
thorax 2.90984 0.892259 1.27322
lowerneck -14.0122 1.9823 -4.5435
upperneck 24.6023 -0.279266 11.2891
head 10.1269 0.260922 4.68118
rclavicle -7.4917e-015 3.97569e-015
rhumerus -46.5934 -6.43929 -86.3542
rradius 47.6082
rwrist 35.5072
rhand -33.3382 -12.7483
rfingers 7.12502
rthumb -6.54072 -42.6273
lclavicle -7.4917e-015 3.97569e-015
lhumerus -50.5339 -14.8843 90.5222
lradius 44.445
lwrist -31.8597
lhand -27.2675 10.9264
lfingers 7.12502
lthumb -0.678434 40.905
rfemur 167.256 60.2486 -170.22
rtibia 29.6866
rfoot -71.3581 -43.5208
rtoes 4.13472e-014
lfemur -8.02328 -6.37195 -14.8293
ltibia 27.4938
lfoot -24.1585 1.68607
ltoes -1.35174e-014
166
root 12.5466 18.0679 11.5087 -177.015 -3.693 -178.702
lowerback -4.56779 1.34781 -2.22626
upperback 0.427765 1.91847 -0.113066
thorax 2.93172 0.918305 1.2653
lowerneck -14.0644 1.88267 -4.64395
upperneck 24.5441 -0.416673 11.4071
head 10.1291 0.203877 4.72441
rclavicle -3.90612e-014 3.57812e-015
rhumerus -47.1886 -4.46626 -86.9529
rradius 49.0462
rwrist 35.7226
rhand -33.26 -12.6104
rfingers 7.12502
rthumb -6.46517 -42.4917
lclavicle -3.90612e-014 3.57812e-015
lhumerus -51.5804 -16.2486 90.9058
lradius 46.1292
lwrist -31.795
lhand -27.404 10.7889
lfingers 7.12502
lthumb -0.810283 40.7671
rfemur 167.342 60.4314 -170.236
rtibia 29.6104
rfoot -71.3565 -43.5505
rtoes 1.37559e-013
lfemur -8.0808 -6.51011 -14.8673
ltibia 27.5261
lfoot -24.2476 1.65575
ltoes 9.16397e-014
167
root 12.5185 18.0635 11.4849 -176.917 -3.49849 -178.82
lowerback -4.71379 1.46502 -2.37321
upperback 0.45106 2.08787 -0.158115
thorax 3.02807 0.998708 1.31751
lowerneck -14.0402 1.79306 -4.58996
upperneck 24.4802 -0.530143 11.3408
head 10.1133 0.150378 4.67434
rclavicle -5.25661e-014 1.86858e-014
rhumerus -47.8876 -2.45113 -87.6344
rradius 50.8536
rwrist 34.0548
rhand -32.5417 -12.2679
rfingers 7.12502
rthumb -5.77173 -42.1693
lclavicle -5.25661e-014 1.86858e-014
lhumerus -52.6629 -17.3978 91.1987
lradius 47.771
lwrist -32.0016
lhand -27.5091 10.512
lfingers 7.12502
lthumb -0.911749 40.4898
rfemur 167.532 60.5391 -170.335
rtibia 29.5086
rfoot -71.4424 -43.7831
rtoes 1.34378e-013
lfemur -8.06331 -6.31815 -15.1001
ltibia 27.5656
lfoot -24.3825 1.58968
ltoes -6.16232e-015
